<svg width="28" height="20" viewBox="0 0 28 20" fill="none" xmlns="http://www.w3.org/2000/svg">
<path d="M23.2531 1.67497C21.5193 0.881212 19.689 0.318094 17.8089 0C17.5516 0.459917 17.3188 0.933111 17.1115 1.4176C15.1088 1.11582 13.0723 1.11582 11.0696 1.4176C10.8622 0.933161 10.6294 0.459973 10.3722 0C8.4909 0.32078 6.65939 0.885235 4.92389 1.67912C1.47847 6.77667 0.544475 11.7476 1.01147 16.648C3.02919 18.1388 5.2876 19.2725 7.68852 20C8.22913 19.2729 8.70751 18.5015 9.11857 17.6941C8.33782 17.4025 7.58425 17.0427 6.8666 16.6189C7.05548 16.4819 7.2402 16.3408 7.4187 16.2038C9.5069 17.1859 11.7861 17.695 14.0937 17.695C16.4013 17.695 18.6804 17.1859 20.7686 16.2038C20.9492 16.3512 21.1339 16.4923 21.3207 16.6189C20.6017 17.0434 19.8467 17.4038 19.0646 17.6961C19.4752 18.5032 19.9536 19.2739 20.4947 20C22.8976 19.2755 25.1578 18.1422 27.1759 16.6501C27.7238 10.9672 26.2398 6.04193 23.2531 1.67497ZM9.7101 13.6343C8.40873 13.6343 7.3336 12.4533 7.3336 11.0004C7.3336 9.54753 8.37137 8.35616 9.70595 8.35616C11.0405 8.35616 12.1074 9.54753 12.0845 11.0004C12.0617 12.4533 11.0364 13.6343 9.7101 13.6343ZM18.4772 13.6343C17.1738 13.6343 16.1028 12.4533 16.1028 11.0004C16.1028 9.54753 17.1406 8.35616 18.4772 8.35616C19.8139 8.35616 20.8724 9.54753 20.8496 11.0004C20.8267 12.4533 19.8035 13.6343 18.4772 13.6343Z" fill="#D8E4DD"/>
</svg>
