<svg width="49" height="50" viewBox="0 0 49 50" fill="none" xmlns="http://www.w3.org/2000/svg">
<path d="M15.3995 31.9742L15.4231 29.7734C15.4231 28.7637 15.4074 28.0696 15.3758 27.6909C15.3758 26.9337 14.9025 26.555 13.9559 26.555H13.814C13.2776 26.555 12.9384 26.3105 12.7964 25.8214C12.7175 25.569 12.678 25.2456 12.678 24.8512C12.678 24.4568 12.7096 24.1333 12.7727 23.8809C12.8516 23.6285 12.9541 23.455 13.0803 23.3603C13.2854 23.2183 13.5221 23.1473 13.7903 23.1473H13.8849C14.8789 23.1473 15.3758 22.7608 15.3758 21.9878C15.3916 19.1007 15.3995 17.4915 15.3995 17.1602C15.3995 15.9454 15.7623 14.9515 16.4881 14.1784C17.2295 13.4054 18.1525 13.0189 19.2568 13.0189C19.7774 13.0189 20.1561 13.082 20.3927 13.2082C20.6294 13.3186 20.7871 13.5 20.866 13.7525C20.9449 13.9891 20.9843 14.3046 20.9843 14.699C20.9843 15.0935 20.9449 15.4169 20.866 15.6693C20.7871 15.9059 20.653 16.0716 20.4637 16.1663C20.164 16.3398 19.7696 16.4266 19.2805 16.4266C18.965 16.4266 18.8072 16.7342 18.8072 17.3495V21.3725C18.8072 22.0666 18.6889 22.7056 18.4522 23.2893C18.2156 23.873 17.9868 24.2832 17.7659 24.5199L17.411 24.8748C17.5056 24.9222 17.6476 25.0642 17.8369 25.3008C18.042 25.5374 18.2077 25.7899 18.3339 26.0581C18.6494 26.768 18.7993 27.7619 18.7835 29.0398C18.7835 30.3177 18.7835 31.3353 18.7835 32.0926V32.6605C18.7835 32.8498 18.823 32.9997 18.9018 33.1101C19.0123 33.2206 19.17 33.2758 19.3751 33.2758C19.596 33.2758 19.7774 33.2837 19.9194 33.2994C20.0772 33.331 20.2586 33.3941 20.4637 33.4888C20.8108 33.6623 20.9843 34.1514 20.9843 34.956C20.9843 35.7764 20.8029 36.2733 20.4401 36.4468C20.1561 36.5888 19.7696 36.6598 19.2805 36.6598C18.1761 36.6598 17.2532 36.2654 16.5117 35.4766C15.7702 34.6878 15.3995 33.6702 15.3995 32.4239V31.9742Z" fill="black"/>
<path d="M15.3995 31.9742L15.4231 29.7734C15.4231 28.7637 15.4074 28.0696 15.3758 27.6909C15.3758 26.9337 14.9025 26.555 13.9559 26.555H13.814C13.2776 26.555 12.9384 26.3105 12.7964 25.8214C12.7175 25.569 12.678 25.2456 12.678 24.8512C12.678 24.4568 12.7096 24.1333 12.7727 23.8809C12.8516 23.6285 12.9541 23.455 13.0803 23.3603C13.2854 23.2183 13.5221 23.1473 13.7903 23.1473H13.8849C14.8789 23.1473 15.3758 22.7608 15.3758 21.9878C15.3916 19.1007 15.3995 17.4915 15.3995 17.1602C15.3995 15.9454 15.7623 14.9515 16.4881 14.1784C17.2295 13.4054 18.1525 13.0189 19.2568 13.0189C19.7774 13.0189 20.1561 13.082 20.3927 13.2082C20.6294 13.3186 20.7871 13.5 20.866 13.7525C20.9449 13.9891 20.9843 14.3046 20.9843 14.699C20.9843 15.0935 20.9449 15.4169 20.866 15.6693C20.7871 15.9059 20.653 16.0716 20.4637 16.1663C20.164 16.3398 19.7696 16.4266 19.2805 16.4266C18.965 16.4266 18.8072 16.7342 18.8072 17.3495V21.3725C18.8072 22.0666 18.6889 22.7056 18.4522 23.2893C18.2156 23.873 17.9868 24.2832 17.7659 24.5199L17.411 24.8748C17.5056 24.9222 17.6476 25.0642 17.8369 25.3008C18.042 25.5374 18.2077 25.7899 18.3339 26.0581C18.6494 26.768 18.7993 27.7619 18.7835 29.0398C18.7835 30.3177 18.7835 31.3353 18.7835 32.0926V32.6605C18.7835 32.8498 18.823 32.9997 18.9018 33.1101C19.0123 33.2206 19.17 33.2758 19.3751 33.2758C19.596 33.2758 19.7774 33.2837 19.9194 33.2994C20.0772 33.331 20.2586 33.3941 20.4637 33.4888C20.8108 33.6623 20.9843 34.1514 20.9843 34.956C20.9843 35.7764 20.8029 36.2733 20.4401 36.4468C20.1561 36.5888 19.7696 36.6598 19.2805 36.6598C18.1761 36.6598 17.2532 36.2654 16.5117 35.4766C15.7702 34.6878 15.3995 33.6702 15.3995 32.4239V31.9742Z" fill="#D8E4DD"/>
<path d="M33.214 29.7734L33.2376 31.9742V32.4239C33.2376 33.6702 32.8669 34.6878 32.1254 35.4766C31.3839 36.2654 30.461 36.6598 29.3566 36.6598C28.4731 36.6598 27.9525 36.4232 27.7948 35.9499C27.7159 35.6975 27.6764 35.3662 27.6764 34.956C27.6764 34.5458 27.7159 34.2224 27.7948 33.9857C27.8736 33.7491 28.0077 33.5834 28.1971 33.4888C28.481 33.3468 28.7571 33.2758 29.0253 33.2758C29.3093 33.2758 29.475 33.2679 29.5223 33.2521C29.5696 33.2521 29.6327 33.1969 29.7116 33.0865C29.8063 32.9918 29.8536 32.8498 29.8536 32.6605V32.0926L29.8299 28.6375C29.8299 27.7698 29.9482 27.0283 30.1849 26.413C30.4215 25.782 30.6582 25.3639 30.8948 25.1588L31.2498 24.8748C31.1394 24.7802 31.0053 24.6461 30.8475 24.4725C30.6897 24.299 30.4768 23.9125 30.2086 23.313C29.9561 22.7135 29.8299 22.0666 29.8299 21.3725L29.8536 17.3495C29.8536 16.8289 29.7668 16.5291 29.5933 16.4502C29.5302 16.4345 29.3961 16.4266 29.191 16.4266C29.0017 16.4266 28.8281 16.4108 28.6704 16.3792C28.5284 16.3477 28.3627 16.2846 28.1734 16.1899C27.9999 16.0795 27.8736 15.9059 27.7948 15.6693C27.7159 15.4169 27.6764 15.0935 27.6764 14.699C27.6764 14.3046 27.7159 13.9891 27.7948 13.7525C27.8736 13.5 27.9999 13.3265 28.1734 13.2318C28.4574 13.0898 28.8597 13.0189 29.3803 13.0189C30.4846 13.0189 31.3997 13.4054 32.1254 14.1784C32.8669 14.9515 33.2376 15.9454 33.2376 17.1602L33.2613 21.9878C33.2613 22.7608 33.7583 23.1473 34.7522 23.1473H34.8468C35.399 23.1473 35.7461 23.3919 35.8881 23.8809C35.9512 24.1333 35.9827 24.4883 35.9827 24.9458C35.9827 25.3876 35.9117 25.7504 35.7697 26.0344C35.6278 26.3026 35.4858 26.4604 35.3438 26.5077C35.2018 26.5393 35.0283 26.555 34.8232 26.555H34.6812C33.7346 26.555 33.2613 26.9337 33.2613 27.6909C33.2297 28.0696 33.214 28.7637 33.214 29.7734Z" fill="black"/>
<path d="M33.214 29.7734L33.2376 31.9742V32.4239C33.2376 33.6702 32.8669 34.6878 32.1254 35.4766C31.3839 36.2654 30.461 36.6598 29.3566 36.6598C28.4731 36.6598 27.9525 36.4232 27.7948 35.9499C27.7159 35.6975 27.6764 35.3662 27.6764 34.956C27.6764 34.5458 27.7159 34.2224 27.7948 33.9857C27.8736 33.7491 28.0077 33.5834 28.1971 33.4888C28.481 33.3468 28.7571 33.2758 29.0253 33.2758C29.3093 33.2758 29.475 33.2679 29.5223 33.2521C29.5696 33.2521 29.6327 33.1969 29.7116 33.0865C29.8063 32.9918 29.8536 32.8498 29.8536 32.6605V32.0926L29.8299 28.6375C29.8299 27.7698 29.9482 27.0283 30.1849 26.413C30.4215 25.782 30.6582 25.3639 30.8948 25.1588L31.2498 24.8748C31.1394 24.7802 31.0053 24.6461 30.8475 24.4725C30.6897 24.299 30.4768 23.9125 30.2086 23.313C29.9561 22.7135 29.8299 22.0666 29.8299 21.3725L29.8536 17.3495C29.8536 16.8289 29.7668 16.5291 29.5933 16.4502C29.5302 16.4345 29.3961 16.4266 29.191 16.4266C29.0017 16.4266 28.8281 16.4108 28.6704 16.3792C28.5284 16.3477 28.3627 16.2846 28.1734 16.1899C27.9999 16.0795 27.8736 15.9059 27.7948 15.6693C27.7159 15.4169 27.6764 15.0935 27.6764 14.699C27.6764 14.3046 27.7159 13.9891 27.7948 13.7525C27.8736 13.5 27.9999 13.3265 28.1734 13.2318C28.4574 13.0898 28.8597 13.0189 29.3803 13.0189C30.4846 13.0189 31.3997 13.4054 32.1254 14.1784C32.8669 14.9515 33.2376 15.9454 33.2376 17.1602L33.2613 21.9878C33.2613 22.7608 33.7583 23.1473 34.7522 23.1473H34.8468C35.399 23.1473 35.7461 23.3919 35.8881 23.8809C35.9512 24.1333 35.9827 24.4883 35.9827 24.9458C35.9827 25.3876 35.9117 25.7504 35.7697 26.0344C35.6278 26.3026 35.4858 26.4604 35.3438 26.5077C35.2018 26.5393 35.0283 26.555 34.8232 26.555H34.6812C33.7346 26.555 33.2613 26.9337 33.2613 27.6909C33.2297 28.0696 33.214 28.7637 33.214 29.7734Z" fill="#D8E4DD"/>
<path fill-rule="evenodd" clip-rule="evenodd" d="M23.4888 0.312299C16.0405 6.42775 11.0258 8.76167 2.09563 9.95069C1.38646 10.0451 0.859759 10.6738 0.909641 11.3875C2.32072 31.5752 9.52581 40.8769 23.7114 49.7955C24.1461 50.0687 24.7062 50.0681 25.1403 49.794C39.2237 40.9015 46.8582 31.7871 48.0912 11.3795C48.1341 10.6691 47.6068 10.047 46.9007 9.95815C37.1815 8.73497 32.0271 6.61652 25.3118 0.371686C24.8054 -0.0993265 24.0234 -0.126605 23.4888 0.312299ZM24.4381 3.59002C20.3311 7.08637 17.1595 9.21452 13.4982 10.5744C13.5044 10.6316 13.5075 10.6896 13.5075 10.7484V18.2838C13.5075 19.1723 12.7873 19.8925 11.8989 19.8925C11.0104 19.8925 10.2902 19.1723 10.2902 18.2838V11.5458C8.66313 11.9392 6.89254 12.2354 4.88571 12.4734C5.89126 30.4678 12.0427 38.4202 24.4381 46.1845C26.9722 44.5876 29.2619 42.9894 31.3075 41.2987L27.4586 41.2987C26.5679 41.2987 25.8457 40.5766 25.8457 39.6858C25.8457 38.7951 26.5679 38.0729 27.4586 38.0729H34.7863C40.4444 32.1221 43.5453 24.6189 44.1022 12.4734C35.001 11.4216 30.612 9.61852 24.4381 3.59002Z" fill="#D9D9D9"/>
<path fill-rule="evenodd" clip-rule="evenodd" d="M23.4888 0.312299C16.0405 6.42775 11.0258 8.76167 2.09563 9.95069C1.38646 10.0451 0.859759 10.6738 0.909641 11.3875C2.32072 31.5752 9.52581 40.8769 23.7114 49.7955C24.1461 50.0687 24.7062 50.0681 25.1403 49.794C39.2237 40.9015 46.8582 31.7871 48.0912 11.3795C48.1341 10.6691 47.6068 10.047 46.9007 9.95815C37.1815 8.73497 32.0271 6.61652 25.3118 0.371686C24.8054 -0.0993265 24.0234 -0.126605 23.4888 0.312299ZM24.4381 3.59002C20.3311 7.08637 17.1595 9.21452 13.4982 10.5744C13.5044 10.6316 13.5075 10.6896 13.5075 10.7484V18.2838C13.5075 19.1723 12.7873 19.8925 11.8989 19.8925C11.0104 19.8925 10.2902 19.1723 10.2902 18.2838V11.5458C8.66313 11.9392 6.89254 12.2354 4.88571 12.4734C5.89126 30.4678 12.0427 38.4202 24.4381 46.1845C26.9722 44.5876 29.2619 42.9894 31.3075 41.2987L27.4586 41.2987C26.5679 41.2987 25.8457 40.5766 25.8457 39.6858C25.8457 38.7951 26.5679 38.0729 27.4586 38.0729H34.7863C40.4444 32.1221 43.5453 24.6189 44.1022 12.4734C35.001 11.4216 30.612 9.61852 24.4381 3.59002Z" fill="#4E7955"/>
</svg>
